<svg xmlns="http://www.w3.org/2000/svg" version="1.1" xmlns:xlink="http://www.w3.org/1999/xlink" xmlns:svgjs="http://svgjs.dev/svgjs" width="1000" height="151" viewBox="0 0 1000 151"><g transform="matrix(1,0,0,1,-0.6060606060606233,-0.17042066794866173)"><svg viewBox="0 0 396 60" data-background-color="#dedede" preserveAspectRatio="xMidYMid meet" height="151" width="1000" xmlns="http://www.w3.org/2000/svg" xmlns:xlink="http://www.w3.org/1999/xlink"><g id="tight-bounds" transform="matrix(1,0,0,1,0.2400000000000091,0.06771682170145255)"><svg viewBox="0 0 395.52 59.86456635659711" height="59.86456635659711" width="395.52"><g><svg viewBox="0 0 502.62080721709697 76.07498145695365" height="59.86456635659711" width="395.52"><g><rect width="4.964197060180132" height="55.322254966887414" x="89.14132989466516" y="10.376363245033119" fill="#ff930f" opacity="1" stroke-width="0" stroke="transparent" fill-opacity="1" class="rect-o$-0" data-fill-palette-color="primary" rx="1%" id="o$-0" data-palette-color="#ff930f"></rect></g><g transform="matrix(1,0,0,1,107.10080721709694,10.51398079470199)"><svg viewBox="0 0 395.52 55.04701986754967" height="55.04701986754967" width="395.52"><g id="textblocktransform"><svg viewBox="0 0 395.52 55.04701986754967" height="55.04701986754967" width="395.52" id="textblock"><g><svg viewBox="0 0 395.52 55.04701986754967" height="55.04701986754967" width="395.52"><g transform="matrix(1,0,0,1,0,0)"><svg width="395.52" viewBox="0.05 -32.15 233.35 32.83" height="55.04701986754967" data-palette-color="#ff930f"><g class="undefined-text-0" data-fill-palette-color="primary" id="text-0"><path d="M13.92-8.89L13.92-8.89Q14.72-9.03 14.72-9.7 14.72-10.38 14.29-11.22 13.87-12.06 13.04-12.82L13.04-12.82Q10.86-14.77 7.15-14.77L7.15-14.77Q5.32-14.77 3.74-14.16L3.74-14.16Q2.05-15.01 1.05-16.87 0.05-18.73 0.05-20.87L0.05-20.87Q0.05-26.49 4.74-29.54L4.74-29.54Q8.76-32.15 14.67-32.15L14.67-32.15Q19.07-32.15 22.07-31.21 25.07-30.27 26.98-28.81L26.98-28.81Q27.54-27.2 27.54-25.46 27.54-23.73 27.08-22.31 26.61-20.9 25.73-20.04L25.73-20.04Q24.9-20.65 22.73-21.29 20.56-21.92 18.77-21.92 16.99-21.92 16.39-21.7 15.8-21.48 15.8-21.02L15.8-21.02Q15.8-20.8 15.87-20.61L15.87-20.61Q16.72-20.83 18.07-20.83L18.07-20.83Q22.83-20.83 25.83-18.58L25.83-18.58Q29.37-15.89 29.37-10.52L29.37-10.52Q29.37-5.79 25.54-2.66L25.54-2.66Q21.39 0.68 14.38 0.68L14.38 0.68Q10.52 0.68 7.69 0.11 4.86-0.46 2.17-1.9L2.17-1.9Q0.34-4.57 0.34-7.31 0.34-10.06 2.22-11.87 4.1-13.67 6.85-13.67 9.59-13.67 11.34-12.55 13.09-11.43 13.92-8.89ZM43.72-26.86L43.72-26.86 43.72-25.76Q42.75-23.73 42.23-22.6 41.72-21.46 41.72-21.04L41.72-21.04Q41.72-20.34 42.53-20.34L42.53-20.34 47.34-30.88Q49.02-31.98 51.94-31.98 54.86-31.98 56.96-30.37L56.96-30.37Q59.25-28.56 59.25-25.44L59.25-25.44Q59.25-22.83 57.47-20.3 55.69-17.77 52.81-15.92L52.81-15.92Q51.46-16.67 50.39-16.67 49.31-16.67 49.31-15.63L49.31-15.63Q50.44-15.41 51.35-15 52.27-14.6 53.51-13.45L53.51-13.45 60.01-7.47Q59.3 0.44 52.1 0.44L52.1 0.44Q49.44 0.44 47.53-0.93L47.53-0.93Q45.29-2.51 44.02-5.76L44.02-5.76 41.75-11.43 41.62-11.43Q40.82-11.43 40.82-10.74L40.82-10.74Q40.82-10.3 41.5-8.62L41.5-8.62Q42.19-6.79 43.55-3.74L43.55-3.74 43.55-1.86Q40.99 0.44 36.11 0.44L36.11 0.44Q33.47 0.44 31.59-0.76L31.59-0.76Q29.47-2.05 29.47-4.44L29.47-4.44 29.47-29.64Q31.98-31.93 37.11-31.93L37.11-31.93Q39.77-31.93 41.62-30.81L41.62-30.81Q43.72-29.47 43.72-26.86ZM74.8-27.08L74.8-27.08 74.8-1.86Q73.68-0.88 71.8-0.22 69.92 0.44 67.23 0.44 64.55 0.44 62.67-0.76L62.67-0.76Q60.54-2.05 60.54-4.42L60.54-4.42 60.54-29.64Q61.66-30.62 63.54-31.27 65.42-31.93 68.09-31.93 70.75-31.93 72.7-30.76L72.7-30.76Q74.8-29.42 74.8-27.08ZM99.77 0.02L82.02 0.02Q79.31 0.02 77.84-1.42 76.36-2.86 76.36-5.76L76.36-5.76 76.36-29.64Q77.65-30.74 79.52-31.34 81.39-31.93 83.39-31.93L83.39-31.93Q86.35-31.93 88.4-30.47L88.4-30.47Q90.62-28.81 90.62-25.88L90.62-25.88 90.62-12.52Q89.25-12.4 87.93-11.76 86.61-11.11 86.61-10.42L86.61-10.42Q86.61-10.01 87.08-9.72L87.08-9.72Q89.49-11.74 94.26-11.74L94.26-11.74 100.04-11.74Q101.65-8.91 101.65-5.96L101.65-5.96Q101.65-4.49 101.14-2.71 100.63-0.93 99.77 0.02L99.77 0.02ZM125.84 0.02L108.1 0.02Q105.39 0.02 103.91-1.42 102.43-2.86 102.43-5.76L102.43-5.76 102.43-29.64Q103.73-30.74 105.59-31.34 107.46-31.93 109.46-31.93L109.46-31.93Q112.42-31.93 114.47-30.47L114.47-30.47Q116.69-28.81 116.69-25.88L116.69-25.88 116.69-12.52Q115.32-12.4 114-11.76 112.69-11.11 112.69-10.42L112.69-10.42Q112.69-10.01 113.15-9.72L113.15-9.72Q115.57-11.74 120.33-11.74L120.33-11.74 126.11-11.74Q127.72-8.91 127.72-5.96L127.72-5.96Q127.72-4.49 127.21-2.71 126.7-0.93 125.84 0.02L125.84 0.02Z" fill="#ff930f" data-fill-palette-color="primary"></path><path d="M158.31-25.88L158.31-25.88 158.31-1.61Q155.58 0.44 151.3 0.44L151.3 0.44Q148.01 0.44 146.08-0.9L146.08-0.9Q144.05-2.27 144.05-4.86L144.05-4.86 144.05-9.69 145.79-9.69Q146.79-9.69 147.04-9.95 147.3-10.21 147.3-10.79L147.3-10.79 139.63-10.79Q139.63-10.21 139.85-9.95 140.07-9.69 140.9-9.69L140.9-9.69 142.76-9.69 142.76-1.61Q140.88-0.39 139.19 0.02 137.51 0.44 135.75 0.44L135.75 0.44Q132.46 0.44 130.53-0.9L130.53-0.9Q128.5-2.27 128.5-4.86L128.5-4.86 128.5-29.15Q129.77-30.49 131.64-31.21 133.51-31.93 135.53-31.93L135.53-31.93Q138.49-31.93 140.54-30.47L140.54-30.47Q142.76-28.81 142.76-25.88L142.76-25.88 142.76-21.53 145.86-21.53Q145.86-22.17 145.63-22.4 145.4-22.63 144.88-22.63L144.88-22.63 144.05-22.63 144.05-29.15Q145.32-30.49 147.19-31.21 149.06-31.93 151.08-31.93L151.08-31.93Q154.04-31.93 156.09-30.47L156.09-30.47Q158.31-28.81 158.31-25.88ZM174.13-27.08L174.13-27.08 174.13-1.86Q173.01-0.88 171.13-0.22 169.25 0.44 166.56 0.44 163.87 0.44 161.99-0.76L161.99-0.76Q159.87-2.05 159.87-4.42L159.87-4.42 159.87-29.64Q160.99-30.62 162.87-31.27 164.75-31.93 167.41-31.93 170.08-31.93 172.03-30.76L172.03-30.76Q174.13-29.42 174.13-27.08ZM190.31-26.9L190.31-26.9 189.53-11.4Q189.82-11.33 190.04-11.33L190.04-11.33Q190.85-11.33 190.95-12.55L190.95-12.55 192.02-30.32Q192.78-30.98 194.8-31.49L194.8-31.49Q196.73-31.93 198.3-31.93L198.3-31.93Q201.98-31.93 203.81-30.25 205.64-28.56 205.64-25.9L205.64-25.9Q205.64-24.41 204.44-19.23 203.23-14.04 200.96-5.2L200.96-5.2Q200.13-2.1 197.22-0.73L197.22-0.73Q194.68 0.44 190.51 0.44L190.51 0.44Q187.87 0.44 185.53-0.15 183.18-0.73 181.77-1.83L181.77-1.83Q179.84-6.08 177.89-13.51 175.93-20.95 174.96-28.56L174.96-28.56Q177.25-31.96 182.26-31.96L182.26-31.96Q188.7-31.96 190.31-26.9ZM217.58-31.49L217.58-31.49 231.67-31.49Q232.38-30.32 232.72-28.94 233.06-27.56 233.06-26.46L233.06-26.46Q233.06-24 232.09-22.75 231.13-21.51 229.4-21.51L229.4-21.51 219.56-21.51Q218.65-21.51 218.65-20.8L218.65-20.8 218.65-20.61Q218.65-20.46 218.7-20.41L218.7-20.41 230.37-20.41Q230.81-19.65 231.13-18.51L231.13-18.51Q231.42-17.26 231.42-16.28L231.42-16.28Q231.42-13.38 230.35-11.74L230.35-11.74 225.05-11.74Q221.34-11.74 220.02-11.46 218.7-11.18 218.39-10.99L218.39-10.99Q218.07-10.77 218.07-10.42 218.07-10.08 218.41-9.89L218.41-9.89Q219.68-10.3 221.07-10.47L221.07-10.47Q222.9-10.64 225.05-10.64L225.05-10.64 231.91-10.64Q233.4-8.54 233.4-5.59L233.4-5.59Q233.4-3.93 232.99-2.42 232.57-0.9 231.74 0.02L231.74 0.02 213.45 0.02Q210.43 0.02 208.6-1.44L208.6-1.44Q206.59-3 206.59-6.03L206.59-6.03 206.59-29.25Q206.59-30.42 209.28-30.96 211.97-31.49 217.58-31.49Z" fill="#3f3f3f" data-fill-palette-color="secondary"></path></g></svg></g></svg></g></svg></g></svg></g><g><svg viewBox="0 0 76.14604963241351 76.07498145695365" height="76.07498145695365" width="76.14604963241351"><g><svg xmlns="http://www.w3.org/2000/svg" xmlns:xlink="http://www.w3.org/1999/xlink" version="1.1" x="0" y="0" viewBox="5.047 5.668749999999999 89.73400000000001 89.65025" enable-background="new 0 0 100 100" xml:space="preserve" height="76.07498145695365" width="76.14604963241351" class="icon-icon-0" data-fill-palette-color="accent" id="icon-0"><g fill="#ff930f" data-fill-palette-color="accent"><path d="M94.281 17.854L73.418 5.803c-0.309-0.179-0.691-0.179-1 0L51.549 17.853c-0.311 0.179-0.5 0.509-0.5 0.866v24.096c0 0.357 0.189 0.688 0.5 0.866L72.418 55.73c0.154 0.09 0.326 0.135 0.5 0.135 0.172 0 0.346-0.045 0.5-0.135l20.863-12.05c0.309-0.178 0.5-0.508 0.5-0.866V18.719C94.781 18.362 94.59 18.032 94.281 17.854zM92.781 42.238L72.918 53.71 53.049 42.238V19.296L72.918 7.823l19.863 11.473V42.238zM48.777 42.815V18.719c0-0.357-0.189-0.688-0.5-0.866L27.414 5.803c-0.311-0.179-0.691-0.178-1 0L5.547 17.853c-0.311 0.179-0.5 0.509-0.5 0.866v24.096c0 0.357 0.189 0.688 0.5 0.866L26.414 55.73c0.154 0.09 0.326 0.135 0.5 0.135 0.172 0 0.346-0.045 0.5-0.135l20.863-12.05C48.588 43.502 48.777 43.172 48.777 42.815zM46.777 37.228L22.35 51.075l-3.762-2.172 28.189-15.917V37.228zM46.777 32.125L17.834 48.467l-3.713-2.144 32.656-18.537V32.125zM13.367 45.888l-3.766-2.175 37.176-21.216v4.427L13.367 45.888zM7.047 28.786v-4.379l24.516-13.897 3.768 2.176L7.047 28.786zM36.082 13.119l3.883 2.243L7.047 33.838v-4.189L36.082 13.119zM7.047 34.699l33.674-18.901 3.633 2.099L7.047 39.013V34.699zM26.914 7.823l3.896 2.25L7.047 23.544v-4.248L26.914 7.823zM7.047 39.874l38.061-21.542 1.67 0.965v2.336L8.85 43.279l-1.803-1.041V39.874zM26.914 53.71l-3.811-2.2 23.674-13.42v4.148L26.914 53.71zM71.203 57.307L50.346 45.259c-0.309-0.179-0.689-0.179-1 0L28.477 57.307c-0.309 0.18-0.5 0.51-0.5 0.867V82.27c0 0.357 0.191 0.688 0.5 0.865l20.869 12.049c0.154 0.09 0.328 0.135 0.5 0.135 0.174 0 0.346-0.045 0.5-0.135l20.857-12.049c0.311-0.178 0.5-0.508 0.5-0.865V58.174C71.703 57.816 71.514 57.486 71.203 57.307zM69.703 81.691L49.846 93.164 29.977 81.691V58.75l19.869-11.47 19.857 11.47V81.691zM27.732 54.865" fill="#ff930f" data-fill-palette-color="accent"></path></g></svg></g></svg></g></svg></g><defs></defs></svg><rect width="395.52" height="59.86456635659711" fill="none" stroke="none" visibility="hidden"></rect></g></svg></g></svg>